<mxfile host="drawio-plugin" modified="2022-11-12T16:57:43.701Z" agent="5.0 (Windows NT 6.2; Win64; x64) AppleWebKit/537.36 (KHTML, like Gecko) Chrome/98.0.4758.102 Safari/537.36" etag="fxgKkRFHvF04xDSwsymT" version="15.5.4" type="embed"><diagram id="sa6Q3xUmAi24UDrEMSUv" name="Página-1"><mxGraphModel dx="2296" dy="2635" grid="1" gridSize="10" guides="1" tooltips="1" connect="1" arrows="1" fold="1" page="1" pageScale="1" pageWidth="827" pageHeight="1169" math="0" shadow="0"><root><mxCell id="0"/><mxCell id="1" parent="0"/><mxCell id="324" style="edgeStyle=orthogonalEdgeStyle;rounded=0;orthogonalLoop=1;jettySize=auto;html=1;entryX=0.75;entryY=0;entryDx=0;entryDy=0;" parent="1" source="321" target="323" edge="1"><mxGeometry relative="1" as="geometry"/></mxCell><mxCell id="321" value="Bob" style="shape=umlActor;verticalLabelPosition=bottom;verticalAlign=top;html=1;outlineConnect=0;" parent="1" vertex="1"><mxGeometry x="-690" y="-1340" width="30" height="60" as="geometry"/></mxCell><mxCell id="455" style="edgeStyle=orthogonalEdgeStyle;rounded=0;orthogonalLoop=1;jettySize=auto;html=1;exitX=0.5;exitY=1;exitDx=0;exitDy=0;" edge="1" parent="1" source="323" target="454"><mxGeometry relative="1" as="geometry"/></mxCell><mxCell id="458" style="edgeStyle=orthogonalEdgeStyle;rounded=0;orthogonalLoop=1;jettySize=auto;html=1;" edge="1" parent="1" source="323" target="457"><mxGeometry relative="1" as="geometry"/></mxCell><mxCell id="323" value="BATTLESHIPS &lt;br&gt;API" style="rounded=0;whiteSpace=wrap;html=1;" parent="1" vertex="1"><mxGeometry x="-880" y="-1221" width="270" height="80" as="geometry"/></mxCell><mxCell id="409" style="edgeStyle=orthogonalEdgeStyle;rounded=0;orthogonalLoop=1;jettySize=auto;html=1;entryX=0.25;entryY=0;entryDx=0;entryDy=0;" parent="1" source="406" target="323" edge="1"><mxGeometry relative="1" as="geometry"/></mxCell><mxCell id="406" value="Alice" style="shape=umlActor;verticalLabelPosition=bottom;verticalAlign=top;html=1;outlineConnect=0;" parent="1" vertex="1"><mxGeometry x="-827" y="-1340" width="30" height="60" as="geometry"/></mxCell><mxCell id="442" value="player1" style="ellipse;whiteSpace=wrap;html=1;" vertex="1" parent="1"><mxGeometry x="-540" y="-970" width="90" height="50" as="geometry"/></mxCell><mxCell id="443" value="player2" style="ellipse;whiteSpace=wrap;html=1;" vertex="1" parent="1"><mxGeometry x="-503" y="-900" width="90" height="50" as="geometry"/></mxCell><mxCell id="446" value="" style="endArrow=none;html=1;rounded=0;startArrow=none;" edge="1" parent="1" source="476" target="453"><mxGeometry width="50" height="50" relative="1" as="geometry"><mxPoint x="-720" y="-810" as="sourcePoint"/><mxPoint x="-570" y="-852" as="targetPoint"/></mxGeometry></mxCell><mxCell id="447" value="" style="endArrow=none;html=1;rounded=0;" edge="1" parent="1" source="442" target="453"><mxGeometry width="50" height="50" relative="1" as="geometry"><mxPoint x="-487.3399335340928" y="-856.5320132931814" as="sourcePoint"/><mxPoint x="-570" y="-828" as="targetPoint"/></mxGeometry></mxCell><mxCell id="448" value="" style="endArrow=none;html=1;rounded=0;" edge="1" parent="1" source="443" target="453"><mxGeometry width="50" height="50" relative="1" as="geometry"><mxPoint x="-478.23954579309407" y="-743.5140076284249" as="sourcePoint"/><mxPoint x="-582.8571428571427" y="-810" as="targetPoint"/></mxGeometry></mxCell><mxCell id="517" style="edgeStyle=orthogonalEdgeStyle;rounded=0;orthogonalLoop=1;jettySize=auto;html=1;" edge="1" parent="1" source="452" target="516"><mxGeometry relative="1" as="geometry"/></mxCell><mxCell id="452" value="USER" style="whiteSpace=wrap;html=1;align=center;" vertex="1" parent="1"><mxGeometry x="-1087" y="-870" width="100" height="40" as="geometry"/></mxCell><mxCell id="495" style="edgeStyle=orthogonalEdgeStyle;rounded=0;orthogonalLoop=1;jettySize=auto;html=1;" edge="1" parent="1" source="453" target="485"><mxGeometry relative="1" as="geometry"/></mxCell><mxCell id="453" value="GAME" style="whiteSpace=wrap;html=1;align=center;" vertex="1" parent="1"><mxGeometry x="-680" y="-870" width="100" height="40" as="geometry"/></mxCell><mxCell id="456" style="edgeStyle=orthogonalEdgeStyle;rounded=0;orthogonalLoop=1;jettySize=auto;html=1;" edge="1" parent="1" source="454" target="452"><mxGeometry relative="1" as="geometry"/></mxCell><mxCell id="454" value="has" style="shape=rhombus;perimeter=rhombusPerimeter;whiteSpace=wrap;html=1;align=center;" vertex="1" parent="1"><mxGeometry x="-1097" y="-1050" width="120" height="60" as="geometry"/></mxCell><mxCell id="459" style="edgeStyle=orthogonalEdgeStyle;rounded=0;orthogonalLoop=1;jettySize=auto;html=1;" edge="1" parent="1" source="457" target="453"><mxGeometry relative="1" as="geometry"/></mxCell><mxCell id="457" value="has" style="shape=rhombus;perimeter=rhombusPerimeter;whiteSpace=wrap;html=1;align=center;" vertex="1" parent="1"><mxGeometry x="-690" y="-1050" width="120" height="60" as="geometry"/></mxCell><mxCell id="460" value="N" style="text;html=1;strokeColor=none;fillColor=none;align=center;verticalAlign=middle;whiteSpace=wrap;rounded=0;" vertex="1" parent="1"><mxGeometry x="-1087" y="-990" width="60" height="30" as="geometry"/></mxCell><mxCell id="461" value="1" style="text;html=1;strokeColor=none;fillColor=none;align=center;verticalAlign=middle;whiteSpace=wrap;rounded=0;" vertex="1" parent="1"><mxGeometry x="-1087" y="-1080" width="60" height="30" as="geometry"/></mxCell><mxCell id="462" value="N" style="text;html=1;strokeColor=none;fillColor=none;align=center;verticalAlign=middle;whiteSpace=wrap;rounded=0;" vertex="1" parent="1"><mxGeometry x="-640" y="-990" width="60" height="30" as="geometry"/></mxCell><mxCell id="463" value="1" style="text;html=1;strokeColor=none;fillColor=none;align=center;verticalAlign=middle;whiteSpace=wrap;rounded=0;" vertex="1" parent="1"><mxGeometry x="-640" y="-1080" width="60" height="30" as="geometry"/></mxCell><mxCell id="470" style="edgeStyle=orthogonalEdgeStyle;rounded=0;orthogonalLoop=1;jettySize=auto;html=1;" edge="1" parent="1" source="468"><mxGeometry relative="1" as="geometry"><mxPoint x="-740" y="-489" as="targetPoint"/></mxGeometry></mxCell><mxCell id="484" style="edgeStyle=orthogonalEdgeStyle;rounded=0;orthogonalLoop=1;jettySize=auto;html=1;" edge="1" parent="1" source="468" target="483"><mxGeometry relative="1" as="geometry"/></mxCell><mxCell id="468" value="has" style="shape=rhombus;perimeter=rhombusPerimeter;whiteSpace=wrap;html=1;align=center;" vertex="1" parent="1"><mxGeometry x="-800" y="-635" width="120" height="60" as="geometry"/></mxCell><mxCell id="471" value="N" style="text;html=1;strokeColor=none;fillColor=none;align=center;verticalAlign=middle;whiteSpace=wrap;rounded=0;" vertex="1" parent="1"><mxGeometry x="-760" y="-569" width="60" height="30" as="geometry"/></mxCell><mxCell id="472" value="1" style="text;html=1;align=center;verticalAlign=middle;resizable=0;points=[];autosize=1;strokeColor=none;fillColor=none;" vertex="1" parent="1"><mxGeometry x="-730" y="-650" width="20" height="20" as="geometry"/></mxCell><mxCell id="473" value="id" style="ellipse;whiteSpace=wrap;html=1;fontStyle=4" vertex="1" parent="1"><mxGeometry x="-990" y="-990" width="90" height="50" as="geometry"/></mxCell><mxCell id="475" value="" style="endArrow=none;html=1;rounded=0;" edge="1" parent="1" source="452" target="473"><mxGeometry width="50" height="50" relative="1" as="geometry"><mxPoint x="-857.706520131419" y="-1037.8290769310056" as="sourcePoint"/><mxPoint x="-891.8181818181818" y="-1020" as="targetPoint"/></mxGeometry></mxCell><mxCell id="476" value="id" style="ellipse;whiteSpace=wrap;html=1;" vertex="1" parent="1"><mxGeometry x="-510" y="-830" width="90" height="50" as="geometry"/></mxCell><mxCell id="480" value="" style="endArrow=none;html=1;rounded=0;" edge="1" parent="1" source="514"><mxGeometry width="50" height="50" relative="1" as="geometry"><mxPoint x="-662.0858209824005" y="-499.83995926126545" as="sourcePoint"/><mxPoint x="-690" y="-488.5652173913045" as="targetPoint"/></mxGeometry></mxCell><mxCell id="483" value="confirmed" style="ellipse;whiteSpace=wrap;html=1;" vertex="1" parent="1"><mxGeometry x="-920" y="-630" width="90" height="50" as="geometry"/></mxCell><mxCell id="487" style="edgeStyle=orthogonalEdgeStyle;rounded=0;orthogonalLoop=1;jettySize=auto;html=1;" edge="1" parent="1" source="485" target="508"><mxGeometry relative="1" as="geometry"><mxPoint x="-630" y="-624" as="targetPoint"/></mxGeometry></mxCell><mxCell id="485" value="has" style="shape=rhombus;perimeter=rhombusPerimeter;whiteSpace=wrap;html=1;align=center;" vertex="1" parent="1"><mxGeometry x="-690" y="-744" width="120" height="60" as="geometry"/></mxCell><mxCell id="490" value="1" style="text;html=1;strokeColor=none;fillColor=none;align=center;verticalAlign=middle;whiteSpace=wrap;rounded=0;" vertex="1" parent="1"><mxGeometry x="-640" y="-804" width="60" height="30" as="geometry"/></mxCell><mxCell id="501" style="edgeStyle=orthogonalEdgeStyle;rounded=0;orthogonalLoop=1;jettySize=auto;html=1;" edge="1" parent="1" source="453" target="468"><mxGeometry relative="1" as="geometry"><mxPoint x="-630" y="-584" as="sourcePoint"/><Array as="points"><mxPoint x="-700" y="-850"/><mxPoint x="-700" y="-732"/><mxPoint x="-740" y="-732"/></Array></mxGeometry></mxCell><mxCell id="497" value="/users/{id}" style="text;html=1;align=center;verticalAlign=middle;resizable=0;points=[];autosize=1;strokeColor=none;fillColor=none;" vertex="1" parent="1"><mxGeometry x="-1130" y="-900" width="70" height="20" as="geometry"/></mxCell><mxCell id="498" value="/games/{id}" style="text;html=1;align=center;verticalAlign=middle;resizable=0;points=[];autosize=1;strokeColor=none;fillColor=none;" vertex="1" parent="1"><mxGeometry x="-725" y="-900" width="80" height="20" as="geometry"/></mxCell><mxCell id="507" value="SHIP" style="shape=ext;margin=3;double=1;whiteSpace=wrap;html=1;align=center;" vertex="1" parent="1"><mxGeometry x="-790" y="-489" width="100" height="40" as="geometry"/></mxCell><mxCell id="508" value="SHOT" style="shape=ext;margin=3;double=1;whiteSpace=wrap;html=1;align=center;" vertex="1" parent="1"><mxGeometry x="-470" y="-640" width="100" height="40" as="geometry"/></mxCell><mxCell id="511" value="coordinate" style="ellipse;whiteSpace=wrap;html=1;align=center;" vertex="1" parent="1"><mxGeometry x="-320" y="-670" width="100" height="40" as="geometry"/></mxCell><mxCell id="512" value="" style="endArrow=none;html=1;rounded=0;startArrow=none;" edge="1" parent="1" source="511" target="508"><mxGeometry width="50" height="50" relative="1" as="geometry"><mxPoint x="-536.4196030283836" y="-641.1027577686427" as="sourcePoint"/><mxPoint x="-584.6153846153845" y="-614" as="targetPoint"/></mxGeometry></mxCell><mxCell id="514" value="&lt;span style=&quot;border-bottom: 1px dotted&quot;&gt;id&lt;/span&gt;" style="ellipse;whiteSpace=wrap;html=1;align=center;" vertex="1" parent="1"><mxGeometry x="-670" y="-539" width="100" height="40" as="geometry"/></mxCell><mxCell id="518" style="edgeStyle=orthogonalEdgeStyle;rounded=0;orthogonalLoop=1;jettySize=auto;html=1;" edge="1" parent="1" source="516" target="453"><mxGeometry relative="1" as="geometry"/></mxCell><mxCell id="516" value="has" style="shape=rhombus;perimeter=rhombusPerimeter;whiteSpace=wrap;html=1;align=center;" vertex="1" parent="1"><mxGeometry x="-900" y="-880" width="120" height="60" as="geometry"/></mxCell><mxCell id="519" value="N" style="text;html=1;strokeColor=none;fillColor=none;align=center;verticalAlign=middle;whiteSpace=wrap;rounded=0;" vertex="1" parent="1"><mxGeometry x="-790" y="-880" width="60" height="30" as="geometry"/></mxCell><mxCell id="520" value="2" style="text;html=1;strokeColor=none;fillColor=none;align=center;verticalAlign=middle;whiteSpace=wrap;rounded=0;" vertex="1" parent="1"><mxGeometry x="-950" y="-880" width="60" height="30" as="geometry"/></mxCell><mxCell id="522" value="/users/{id}/games/{id}" style="text;html=1;align=center;verticalAlign=middle;resizable=0;points=[];autosize=1;strokeColor=none;fillColor=none;" vertex="1" parent="1"><mxGeometry x="-920" y="-900" width="130" height="20" as="geometry"/></mxCell><mxCell id="523" value="&lt;span style=&quot;border-bottom: 1px dotted&quot;&gt;player&lt;/span&gt;" style="ellipse;whiteSpace=wrap;html=1;align=center;" vertex="1" parent="1"><mxGeometry x="-360" y="-734" width="100" height="40" as="geometry"/></mxCell><mxCell id="524" value="" style="endArrow=none;html=1;rounded=0;startArrow=none;" edge="1" parent="1" source="523" target="508"><mxGeometry width="50" height="50" relative="1" as="geometry"><mxPoint x="-304.7213595499961" y="-631.0557280900011" as="sourcePoint"/><mxPoint x="-360" y="-620" as="targetPoint"/></mxGeometry></mxCell><mxCell id="533" value="/games{id}/my/shots/{id}" style="text;html=1;align=center;verticalAlign=middle;resizable=0;points=[];autosize=1;strokeColor=none;fillColor=none;" vertex="1" parent="1"><mxGeometry x="-575" y="-670" width="140" height="20" as="geometry"/></mxCell><mxCell id="534" value="/games{id}/my/ships/{id}" style="text;html=1;align=center;verticalAlign=middle;resizable=0;points=[];autosize=1;strokeColor=none;fillColor=none;" vertex="1" parent="1"><mxGeometry x="-885" y="-509" width="140" height="20" as="geometry"/></mxCell><mxCell id="535" value="/my/games/{id}" style="text;html=1;align=center;verticalAlign=middle;resizable=0;points=[];autosize=1;strokeColor=none;fillColor=none;" vertex="1" parent="1"><mxGeometry x="-730" y="-920" width="90" height="20" as="geometry"/></mxCell><mxCell id="536" value="/my/games{id}/my/shots/{id}" style="text;html=1;align=center;verticalAlign=middle;resizable=0;points=[];autosize=1;strokeColor=none;fillColor=none;" vertex="1" parent="1"><mxGeometry x="-585" y="-690" width="160" height="20" as="geometry"/></mxCell><mxCell id="537" value="/my/games/my/ships/{id}" style="text;html=1;align=center;verticalAlign=middle;resizable=0;points=[];autosize=1;strokeColor=none;fillColor=none;" vertex="1" parent="1"><mxGeometry x="-890" y="-529" width="150" height="20" as="geometry"/></mxCell></root></mxGraphModel></diagram></mxfile>